<svg width="35" height="35" viewBox="0 0 35 35" fill="none" xmlns="http://www.w3.org/2000/svg">
<path d="M33.9062 18.8014C33.9062 18.5713 33.7623 18.3659 33.546 18.2873L25.7031 15.4354V6.3012H25.6819C25.7613 6.02605 25.6127 5.73668 25.3429 5.64084L17.1397 2.65833C17.0193 2.61389 16.887 2.61389 16.7665 2.65833L8.56338 5.64084C8.38838 5.70517 8.25809 5.85399 8.21748 6.03596H8.20312V15.4354L0.360254 18.2873C0.185254 18.3517 0.0549609 18.5005 0.0143555 18.6824H0V28.3772H0.0136719C-0.0465527 28.6453 0.101856 28.9165 0.360254 29.0102L8.56338 31.9927C8.68376 32.0373 8.81624 32.0373 8.93662 31.9927L16.9531 29.0779L24.9696 31.9927C25.09 32.0373 25.2225 32.0373 25.3429 31.9927L33.546 29.0102C33.7121 28.9498 33.8387 28.8128 33.8857 28.6424H33.9062V18.9477C33.9062 18.9477 33.9058 18.8509 33.9062 18.8014ZM8.20312 30.698L1.09375 28.1133V19.5821L8.20312 22.1674V30.698ZM8.75 21.2022L2.14717 18.8014L8.70693 16.4156L15.3104 18.8171L8.75 21.2022ZM16.4062 28.1133L9.29688 30.698V22.1674L16.4062 19.5821V28.1133ZM16.4062 18.0207L9.29688 15.4354V6.93557L16.4062 9.52092V18.0207ZM10.3503 6.15491L16.9531 3.75413L23.556 6.15491L16.9531 8.55569L10.3503 6.15491ZM24.6094 6.93557V15.4354L17.5 18.0207V9.52092L24.6094 6.93557ZM24.6094 30.698L17.5 28.1133V19.5821L24.6094 22.1674V30.698ZM25.1562 21.2022L18.5958 18.8171L25.1993 16.4156L31.7591 18.8014L25.1562 21.2022ZM32.8125 28.1133L25.7031 30.698V22.1674L32.8125 19.5821V28.1133Z" fill="#2B57AD"/>
</svg>
