<svg width="35" height="35" viewBox="0 0 35 35" fill="none" xmlns="http://www.w3.org/2000/svg">
<path d="M18.375 7.4375C17.9424 7.4375 17.5194 7.56579 17.1597 7.80616C16.8 8.04653 16.5196 8.38817 16.354 8.78788C16.1884 9.18759 16.1451 9.62743 16.2295 10.0518C16.3139 10.4761 16.5223 10.8659 16.8282 11.1718C17.1341 11.4777 17.5239 11.6861 17.9482 11.7705C18.3726 11.8549 18.8124 11.8116 19.2121 11.646C19.6118 11.4804 19.9535 11.2 20.1939 10.8403C20.4342 10.4806 20.5625 10.0576 20.5625 9.625C20.5625 9.04484 20.332 8.48844 19.9218 8.0782C19.5116 7.66797 18.9552 7.4375 18.375 7.4375ZM18.375 10.7187C18.1587 10.7187 17.9472 10.6546 17.7674 10.5344C17.5875 10.4142 17.4473 10.2434 17.3645 10.0436C17.2817 9.8437 17.2601 9.62379 17.3023 9.41162C17.3445 9.19945 17.4486 9.00457 17.6016 8.8516C17.7546 8.69864 17.9495 8.59447 18.1616 8.55227C18.3738 8.51006 18.5937 8.53172 18.7936 8.61451C18.9934 8.69729 19.1642 8.83748 19.2844 9.01734C19.4046 9.19721 19.4688 9.40868 19.4688 9.625C19.4688 9.91508 19.3535 10.1933 19.1484 10.3984C18.9433 10.6035 18.6651 10.7187 18.375 10.7187Z" fill="#2B57AD"/>
<path d="M23.2969 10.1719C22.9724 10.1719 22.6552 10.2681 22.3854 10.4484C22.1156 10.6286 21.9053 10.8849 21.7811 11.1847C21.657 11.4844 21.6245 11.8143 21.6878 12.1326C21.7511 12.4508 21.9073 12.7431 22.1368 12.9726C22.3662 13.202 22.6586 13.3583 22.9768 13.4216C23.2951 13.4849 23.6249 13.4524 23.9247 13.3282C24.2245 13.2041 24.4807 12.9938 24.661 12.724C24.8413 12.4542 24.9375 12.137 24.9375 11.8125C24.9375 11.3774 24.7647 10.9601 24.457 10.6524C24.1493 10.3447 23.732 10.1719 23.2969 10.1719ZM23.2969 12.3594C23.1887 12.3594 23.083 12.3273 22.9931 12.2672C22.9031 12.2071 22.833 12.1217 22.7916 12.0218C22.7502 11.9218 22.7394 11.8119 22.7605 11.7058C22.7816 11.5997 22.8337 11.5023 22.9102 11.4258C22.9867 11.3493 23.0841 11.2972 23.1902 11.2761C23.2963 11.255 23.4062 11.2659 23.5062 11.3073C23.6061 11.3486 23.6915 11.4187 23.7516 11.5087C23.8117 11.5986 23.8438 11.7043 23.8438 11.8125C23.8438 11.9575 23.7861 12.0966 23.6836 12.1992C23.581 12.3018 23.4419 12.3594 23.2969 12.3594Z" fill="#2B57AD"/>
<path d="M23.2969 16.1875C23.2969 16.512 23.3931 16.8292 23.5734 17.099C23.7536 17.3688 24.0099 17.5791 24.3097 17.7032C24.6094 17.8274 24.9393 17.8599 25.2576 17.7966C25.5758 17.7333 25.8682 17.577 26.0976 17.3476C26.327 17.1182 26.4833 16.8258 26.5466 16.5076C26.6099 16.1893 26.5774 15.8594 26.4532 15.5597C26.3291 15.2599 26.1188 15.0036 25.849 14.8234C25.5792 14.6431 25.262 14.5469 24.9375 14.5469C24.5024 14.5469 24.0851 14.7197 23.7774 15.0274C23.4697 15.3351 23.2969 15.7524 23.2969 16.1875ZM24.9375 15.6406C25.0457 15.6406 25.1514 15.6727 25.2413 15.7328C25.3313 15.7929 25.4014 15.8783 25.4428 15.9782C25.4841 16.0782 25.495 16.1881 25.4739 16.2942C25.4528 16.4003 25.4007 16.4977 25.3242 16.5742C25.2477 16.6507 25.1503 16.7028 25.0442 16.7239C24.9381 16.745 24.8282 16.7341 24.7282 16.6928C24.6283 16.6514 24.5429 16.5813 24.4828 16.4913C24.4227 16.4014 24.3906 16.2957 24.3906 16.1875C24.3906 16.0425 24.4482 15.9034 24.5508 15.8008C24.6534 15.6982 24.7925 15.6406 24.9375 15.6406Z" fill="#2B57AD"/>
<path d="M32.0469 0.875H2.51562C2.0809 0.876298 1.66436 1.04957 1.35696 1.35696C1.04957 1.66436 0.876298 2.0809 0.875 2.51562V28.7656C0.876298 29.2003 1.04957 29.6169 1.35696 29.9243C1.66436 30.2317 2.0809 30.405 2.51562 30.4062H12.9773L11.3586 32.8398C11.3022 32.9209 11.2697 33.0162 11.2649 33.1148C11.2601 33.2135 11.2831 33.3115 11.3312 33.3977C11.377 33.4856 11.4461 33.5592 11.531 33.6104C11.616 33.6615 11.7134 33.6882 11.8125 33.6875H22.75C22.8491 33.6882 22.9465 33.6615 23.0314 33.6104C23.1164 33.5592 23.1855 33.4856 23.2312 33.3977C23.2794 33.3115 23.3024 33.2135 23.2976 33.1148C23.2928 33.0162 23.2603 32.9209 23.2039 32.8398L21.5852 30.4062H32.0469C32.4816 30.405 32.8981 30.2317 33.2055 29.9243C33.5129 29.6169 33.6862 29.2003 33.6875 28.7656V2.51562C33.6862 2.0809 33.5129 1.66436 33.2055 1.35696C32.8981 1.04957 32.4816 0.876298 32.0469 0.875ZM21.7273 32.5938H12.8352L14.2953 30.4062H20.2672L21.7273 32.5938ZM32.5937 28.7656C32.5937 28.9107 32.5361 29.0498 32.4336 29.1523C32.331 29.2549 32.1919 29.3125 32.0469 29.3125H2.51562C2.37058 29.3125 2.23148 29.2549 2.12893 29.1523C2.02637 29.0498 1.96875 28.9107 1.96875 28.7656V27.125H32.5937V28.7656ZM32.5937 26.0312H1.96875V2.51562C1.96875 2.37058 2.02637 2.23149 2.12893 2.12893C2.23148 2.02637 2.37058 1.96875 2.51562 1.96875H32.0469C32.1919 1.96875 32.331 2.02637 32.4336 2.12893C32.5361 2.23149 32.5937 2.37058 32.5937 2.51562V26.0312Z" fill="#2B57AD"/>
<path d="M19.6491 20.289L13.6335 9.87108C13.5976 9.80832 13.5496 9.75328 13.4924 9.70917C13.4351 9.66505 13.3697 9.63272 13.2999 9.61405C13.1595 9.57713 13.0103 9.59677 12.8842 9.66874L10.992 10.7625C10.8666 10.8357 10.775 10.9553 10.7371 11.0956C10.6993 11.2358 10.7181 11.3853 10.7897 11.5117L16.8053 21.9297C16.8802 22.0543 16.9993 22.1461 17.1389 22.1867C17.1855 22.1976 17.2332 22.2031 17.2811 22.2031C17.3766 22.2016 17.4704 22.1772 17.5545 22.132L19.4467 21.0383C19.5094 21.0025 19.5644 20.9548 19.6085 20.8977C19.6526 20.8406 19.685 20.7754 19.7038 20.7058C19.7226 20.6361 19.7275 20.5635 19.7181 20.4919C19.7087 20.4204 19.6852 20.3515 19.6491 20.289ZM17.4835 20.907L12.0147 11.4351L12.9608 10.8883L18.4295 20.3601L17.4835 20.907Z" fill="#2B57AD"/>
<path d="M12.4688 6.75393L11.9492 5.85706C11.7014 5.4287 11.3424 5.07534 10.9102 4.8344L8.65156 3.58206C8.56861 3.5359 8.47506 3.51213 8.38013 3.51309C8.28521 3.51405 8.19216 3.5397 8.11016 3.58753C8.02879 3.63534 7.96097 3.70312 7.91312 3.78447C7.86527 3.86581 7.83897 3.95802 7.83672 4.05237L7.79297 6.63362C7.7864 7.12827 7.91295 7.6156 8.15937 8.04455L8.67891 8.94143C8.89691 9.31805 9.25536 9.59287 9.67567 9.70563C10.096 9.8184 10.5438 9.75991 10.9211 9.54299L11.8672 8.99612C12.054 8.88848 12.2178 8.74507 12.3491 8.5741C12.4805 8.40313 12.5768 8.20795 12.6327 7.99971C12.6886 7.79147 12.7029 7.57426 12.6747 7.3605C12.6466 7.14674 12.5766 6.94062 12.4688 6.75393ZM11.5719 7.71643C11.5546 7.78612 11.5234 7.85159 11.4802 7.90892C11.4369 7.96625 11.3826 8.01424 11.3203 8.05002L10.3742 8.5969C10.2478 8.66846 10.0983 8.68735 9.95809 8.64947C9.81786 8.6116 9.69819 8.52002 9.625 8.39455L9.10547 7.49768C8.95684 7.24027 8.88121 6.94721 8.88672 6.65002L8.91406 4.98206L10.3797 5.79143C10.6392 5.93525 10.8547 6.14698 11.0031 6.40393L11.5172 7.3008C11.5543 7.36265 11.5783 7.43145 11.5877 7.50294C11.5971 7.57443 11.5917 7.6471 11.5719 7.71643Z" fill="#2B57AD"/>
<path d="M15.2759 6.32632C17.2173 5.64068 19.3313 5.61889 21.2864 6.26435C23.2415 6.90982 24.9271 8.18602 26.0786 9.89276C27.2302 11.5995 27.7826 13.6402 27.6492 15.6948C27.5158 17.7494 26.7042 19.7015 25.3417 21.2451C25.1356 20.5732 24.7196 19.9851 24.1547 19.567C23.5899 19.1489 22.9059 18.9228 22.2032 18.9219C22.0581 18.9219 21.919 18.9796 21.8165 19.0821C21.7139 19.1847 21.6563 19.3238 21.6563 19.4688C21.6563 19.6139 21.7139 19.753 21.8165 19.8555C21.919 19.9581 22.0581 20.0157 22.2032 20.0157C22.7833 20.0157 23.3397 20.2462 23.75 20.6564C24.1602 21.0666 24.3907 21.623 24.3907 22.2032C24.391 22.2552 24.3873 22.3071 24.3797 22.3585C24.3634 22.4695 24.3815 22.5829 24.4318 22.6832C24.482 22.7836 24.5619 22.866 24.6606 22.9194C24.7593 22.9728 24.872 22.9945 24.9835 22.9816C25.095 22.9687 25.1998 22.9219 25.2837 22.8474C27.0808 21.2455 28.2659 19.0692 28.6365 16.6905C29.007 14.3118 28.5401 11.8782 27.3155 9.8055C26.0909 7.73282 24.1845 6.1497 21.9222 5.32661C19.6598 4.50351 17.1819 4.49154 14.9117 5.29272C14.7748 5.34102 14.6628 5.4417 14.6002 5.57262C14.5376 5.70354 14.5295 5.85396 14.5778 5.99081C14.6261 6.12765 14.7268 6.23971 14.8577 6.30232C14.9886 6.36493 15.1391 6.37297 15.2759 6.32468V6.32632Z" fill="#2B57AD"/>
<path d="M14.1416 20.5811C13.3089 20.3581 12.5284 19.9732 11.8445 19.4485C11.1606 18.9238 10.5868 18.2695 10.1558 17.5229C9.72488 16.7764 9.44522 15.9523 9.33282 15.0976C9.22043 14.243 9.27751 13.3746 9.50081 12.542C9.52163 12.472 9.52822 12.3985 9.52017 12.3259C9.51213 12.2533 9.48961 12.183 9.45396 12.1192C9.4183 12.0555 9.37023 11.9995 9.31258 11.9546C9.25494 11.9097 9.18888 11.8768 9.11832 11.8579C9.04775 11.839 8.97411 11.8344 8.90174 11.8444C8.82937 11.8544 8.75973 11.8788 8.69695 11.9162C8.63417 11.9535 8.57951 12.0031 8.5362 12.0619C8.49289 12.1208 8.46181 12.1877 8.44479 12.2587C7.92158 14.2201 8.19776 16.3089 9.21276 18.0669C10.2277 19.8249 11.8986 21.1085 13.8589 21.636C13.9048 21.6488 13.9522 21.6556 14 21.6562C14.1326 21.6562 14.2607 21.6079 14.3604 21.5204C14.4601 21.4328 14.5246 21.3121 14.5419 21.1805C14.5591 21.049 14.528 20.9157 14.4543 20.8054C14.3805 20.6951 14.2692 20.6154 14.141 20.5811H14.1416Z" fill="#2B57AD"/>
</svg>
