<svg width="35" height="35" viewBox="0 0 35 35" fill="none" xmlns="http://www.w3.org/2000/svg">
<path d="M14.5401 9.38087C16.063 9.38087 17.3021 8.14185 17.3021 6.61887C17.3021 5.09589 16.063 3.85681 14.5401 3.85681C13.0171 3.85681 11.7781 5.09589 11.7781 6.61887C11.7781 8.14185 13.0171 9.38087 14.5401 9.38087ZM14.5401 4.8822C15.4977 4.8822 16.2767 5.66123 16.2767 6.61887C16.2767 7.57645 15.4977 8.35547 14.5401 8.35547C13.5825 8.35547 12.8035 7.57645 12.8035 6.61887C12.8035 5.66129 13.5825 4.8822 14.5401 4.8822Z" fill="#2B57AD"/>
<path d="M13.5241 29.8731C15.267 29.8731 16.685 28.4551 16.685 26.7123C16.685 24.9694 15.267 23.5514 13.5241 23.5514C11.7813 23.5514 10.3633 24.9694 10.3633 26.7123C10.3633 28.4551 11.7813 29.8731 13.5241 29.8731ZM13.5241 24.5768C14.7017 24.5768 15.6596 25.5348 15.6596 26.7123C15.6596 27.8897 14.7016 28.8477 13.5241 28.8477C12.3467 28.8477 11.3887 27.8897 11.3887 26.7123C11.3887 25.5348 12.3466 24.5768 13.5241 24.5768Z" fill="#2B57AD"/>
<path d="M8.99711 8.99817C7.14929 8.99817 5.646 10.5015 5.646 12.3493C5.646 14.1971 7.14929 15.7004 8.99711 15.7004C10.8449 15.7004 12.3482 14.1971 12.3482 12.3493C12.3482 10.5015 10.8449 8.99817 8.99711 8.99817ZM8.99711 14.6751C7.71468 14.6751 6.67139 13.6318 6.67139 12.3494C6.67139 11.0669 7.71475 10.0236 8.99711 10.0236C10.2795 10.0236 11.3228 11.0669 11.3228 12.3494C11.3228 13.6318 10.2795 14.6751 8.99711 14.6751Z" fill="#2B57AD"/>
<path d="M8.03739 23.8383C9.88521 23.8383 11.3885 22.335 11.3885 20.4872C11.3885 18.6394 9.88521 17.1361 8.03739 17.1361C6.18957 17.1361 4.68628 18.6394 4.68628 20.4872C4.68628 22.335 6.18957 23.8383 8.03739 23.8383ZM8.03739 18.1614C9.31981 18.1614 10.3631 19.2047 10.3631 20.4872C10.3631 21.7696 9.31975 22.8129 8.03739 22.8129C6.75504 22.8129 5.71167 21.7696 5.71167 20.4872C5.71167 19.2047 6.75497 18.1614 8.03739 18.1614Z" fill="#2B57AD"/>
<path d="M11.3775 33.5268C11.6557 33.578 11.923 33.3931 11.974 33.1145C12.0249 32.8359 11.8403 32.5689 11.5617 32.5181C9.59659 32.1592 7.83867 31.1844 6.47799 29.6988C2.51461 25.3718 0.749997 20.7048 1.23309 15.8274C2.32321 4.82004 13.9308 -0.658786 24.6357 1.48228C26.0819 1.77151 26.6451 2.95028 26.6879 3.87176C26.7302 4.78134 26.2848 5.99123 24.8904 6.4078C23.0888 6.94599 21.6644 7.7315 20.6566 8.74246C18.3469 11.0596 18.1468 14.9693 20.3523 17.6028C21.4413 18.9032 22.138 20.4801 22.3719 22.171C21.2109 24.8099 20.0236 27.7982 19.1048 30.5642C17.6286 31.7836 15.7608 32.5225 13.8288 32.6487C13.5462 32.6672 13.3321 32.9111 13.3505 33.1937C13.3683 33.4649 13.5937 33.673 13.8617 33.673C13.8729 33.673 13.8842 33.6727 13.8956 33.6719C15.5593 33.5633 17.1805 33.0448 18.5901 32.1855C18.2919 33.2243 18.7787 34.3125 19.7577 34.7829C20.8032 35.2854 22.0689 34.8872 22.6394 33.8778C23.6266 32.131 24.6964 30.0109 25.7328 27.7468C25.8507 27.4893 25.7374 27.185 25.48 27.0672C25.2225 26.9493 24.9183 27.0626 24.8005 27.32C23.776 29.5583 22.72 31.6514 21.7468 33.3733C21.4407 33.9148 20.7623 34.1278 20.2018 33.8588C19.6716 33.6039 19.4102 33.0117 19.5805 32.4505C20.904 28.0847 23.1112 22.7705 25.1332 18.6613L27.8889 19.8409C27.2464 21.5919 26.5144 23.415 25.7676 25.1436C25.6554 25.4036 25.7753 25.7052 26.0352 25.8174C26.2956 25.9297 26.597 25.8097 26.7091 25.5498C28.1158 22.2854 29.6858 18.208 30.602 14.7777C30.9277 14.6608 31.163 14.4252 31.2878 14.1337L31.7315 13.0971C31.8266 12.875 31.8476 12.6397 31.8061 12.4183C32.6595 11.8736 33.854 10.9018 34.473 9.45579C35.2377 7.66957 34.7295 4.6434 34.3586 2.99855C34.2875 2.68341 34.0677 2.41927 33.7707 2.29213C33.4736 2.16498 33.1308 2.18815 32.8537 2.35433C31.4075 3.22146 28.8671 4.94274 28.1025 6.72882C27.4837 8.17426 27.6049 9.70885 27.7997 10.7024C27.6057 10.8282 27.4532 11.0085 27.3602 11.2259L26.9165 12.2625C26.7907 12.5562 26.7846 12.888 26.9238 13.2031C25.5481 15.4576 24.1823 18.1937 23.0806 20.5943C22.6936 19.2584 22.0367 18.0171 21.1385 16.9446C20.2785 15.9176 19.8424 14.7139 19.8424 13.3669C19.8424 10.46 21.6396 8.44927 25.184 7.39039C26.7981 6.90819 27.7905 5.50841 27.7122 3.82432C27.6475 2.43144 26.7333 0.85625 24.8368 0.476927C13.552 -1.78014 1.36591 4.0845 0.212628 15.7263C-0.300405 20.9062 1.55314 25.8402 5.72187 30.3914C7.23486 32.0432 9.19054 33.1275 11.3775 33.5268ZM27.7102 13.8832C28.3821 14.1708 28.8951 14.3905 29.567 14.6781C29.2318 15.9108 28.7778 17.3433 28.2369 18.8745L25.5921 17.7423C26.3268 16.2937 27.0498 14.9764 27.7102 13.8832ZM30.7889 12.6935L30.3451 13.7301C30.3092 13.8138 30.2155 13.8403 30.1452 13.8102L27.939 12.8658C27.8675 12.8352 27.8236 12.7486 27.859 12.6659L28.3027 11.6293C28.3373 11.5487 28.4288 11.5175 28.5028 11.5493L30.7088 12.4936C30.7799 12.5241 30.8236 12.6123 30.7889 12.6935ZM29.045 7.13227C29.2695 6.60782 30.1396 5.18035 33.3628 3.2445C34.1872 6.91311 33.7547 8.52768 33.5302 9.0522C33.0009 10.2889 31.936 11.1286 31.1962 11.591C31.1688 11.5765 31.1407 11.5632 31.1122 11.551L28.9061 10.6066H28.906C28.8775 10.5944 28.8486 10.5834 28.8192 10.5735C28.6432 9.71897 28.5157 8.36888 29.045 7.13227Z" fill="#2B57AD"/>
</svg>
