<svg width="18" height="18" viewBox="0 0 18 18" fill="none" xmlns="http://www.w3.org/2000/svg">
<path d="M14.8726 7.60852C14.5045 7.24536 14.0172 7.04532 13.5001 7.04532C12.978 7.04532 12.4872 7.24852 12.1181 7.61801L10.9688 8.76692V1.96875C10.9688 0.883125 10.0857 0 9.0001 0C7.91447 0 7.03135 0.883125 7.03135 1.96875V8.76692L5.89967 7.63524C5.53053 7.2661 5.0176 7.05481 4.49166 7.05481H4.48498C3.95975 7.05657 3.47107 7.26012 3.10861 7.6275C2.74545 7.99559 2.54541 8.48286 2.54541 9C2.54541 9.52207 2.74861 10.0129 3.11811 10.382L7.85646 15.1207C8.17182 15.4361 8.58596 15.5936 9.0001 15.5936C9.41424 15.5936 9.82838 15.4361 10.1437 15.1207L14.8649 10.3996C15.2354 10.029 15.447 9.51329 15.4453 8.98489C15.4435 8.45965 15.24 7.97098 14.8726 7.60852Z" fill="white"/>
<path d="M17.4375 18H16.5938C16.2831 18 16.0312 17.7481 16.0312 17.4375C16.0312 17.1269 16.2831 16.875 16.5938 16.875H17.4375C17.7481 16.875 18 17.1269 18 17.4375C18 17.7481 17.7481 18 17.4375 18Z" fill="white"/>
<path d="M1.40625 18H0.5625C0.251859 18 0 17.7481 0 17.4375C0 17.1269 0.251859 16.875 0.5625 16.875H1.40625C1.71689 16.875 1.96875 17.1269 1.96875 17.4375C1.96875 17.7481 1.71689 18 1.40625 18Z" fill="white"/>
<path d="M14.625 18H3.375C3.06436 18 2.8125 17.7481 2.8125 17.4375C2.8125 17.1269 3.06436 16.875 3.375 16.875H14.625C14.9356 16.875 15.1875 17.1269 15.1875 17.4375C15.1875 17.7481 14.9356 18 14.625 18Z" fill="white"/>
</svg>
