<svg width="27" height="20" viewBox="0 0 27 20" fill="none" xmlns="http://www.w3.org/2000/svg">
<g clip-path="url(#clip0)">
<path d="M26.6689 9.78064C26.8865 9.62552 26.8858 9.37496 26.6674 9.22093L16.0371 1.72756C14.8916 0.920128 14.0282 0.475959 12.8869 1.28928C11.7456 2.1026 12.5123 2.67358 13.6578 3.48102L20.3535 9.22566L3.34276 7.87337C1.80059 7.87734 0.0216956 8.47592 0.0245085 9.56896C0.0273213 10.662 1.79692 11.3485 3.33909 11.3445L20.3529 9.78537L12.8726 14.8085C11.7313 15.6219 10.7913 16.5311 11.9367 17.3385C13.0822 18.1459 14.307 17.4469 15.4482 16.6335L26.6689 9.78064Z" fill="#2B57AD"/>
</g>
<defs>
<clipPath id="clip0">
<rect width="19" height="26.8072" fill="white" transform="translate(26.8071) rotate(89.8526)"/>
</clipPath>
</defs>
</svg>
