<svg width="40" height="40" viewBox="0 0 40 40" fill="none" xmlns="http://www.w3.org/2000/svg">
<path d="M34.1666 4.16675H5.83325L8.33325 32.5001L19.9999 35.8334L31.6666 32.5001L34.1666 4.16675Z" fill="#0277BD"/>
<path d="M20 6.66675V33.2501L29.3333 30.5834L31.4167 6.66675H20Z" fill="#039BE5"/>
<path d="M27.5833 10.8333H20V14.1666H24.0833L23.8333 17.4999H20V20.8333H23.6667L23.4167 24.5833L20 25.7499V29.2499L26.5833 27.0833L27.1667 17.4999L27.5833 10.8333Z" fill="white"/>
<path d="M19.9999 10.8333V14.1666H12.5833L12.3333 10.8333H19.9999ZM16.1666 17.4999L16.3333 20.8333H19.9999V17.4999H16.1666ZM16.4999 22.4999H13.1666L13.4166 27.0833L19.9999 29.2499V25.7499L16.5833 24.5833L16.4999 22.4999Z" fill="#EEEEEE"/>
</svg>
