<svg width="40" height="40" viewBox="0 0 40 40" fill="none" xmlns="http://www.w3.org/2000/svg">
<path d="M35 14.4166C35 31.4999 20 36.6666 20 36.6666C20 36.6666 5 31.4999 5 14.4166C5 12.3333 5.16667 10.5833 5.33333 9.16659C5.58333 7.08325 7 5.41659 9 4.91659C11.5833 4.16659 15.6667 3.33325 20 3.33325C24.3333 3.33325 28.4167 4.16659 31.0833 4.91659C33.0833 5.41659 34.5 7.16659 34.75 9.16659C34.8333 10.5833 35 12.4166 35 14.4166Z" fill="#5D4037"/>
<path d="M20 5.83325C24.0833 5.83325 27.9167 6.66659 30.4167 7.33325C31.4167 7.58325 32.0833 8.41659 32.25 9.49992C32.4167 11.0833 32.5 12.7499 32.5 14.4166C32.5 27.4166 22.9167 32.6666 20 33.9166C17.0833 32.5833 7.5 27.3333 7.5 14.4166C7.5 12.7499 7.58333 11.0833 7.75 9.49992C7.83333 8.41659 8.58333 7.58325 9.58333 7.33325C12.0833 6.66659 15.9167 5.83325 20 5.83325ZM20 3.33325C15.6667 3.33325 11.5833 4.16659 8.91667 4.91659C7 5.41659 5.5 7.16659 5.33333 9.16659C5.16667 10.5833 5 12.4166 5 14.4166C5 31.4999 20 36.6666 20 36.6666C20 36.6666 35 31.4999 35 14.4166C35 12.3333 34.8333 10.5833 34.6667 9.16659C34.4167 7.08325 33 5.41659 31 4.91659C28.4167 4.16659 24.3333 3.33325 20 3.33325Z" fill="#4CAF50"/>
<path d="M19.1667 23.3333H20.8334V29.9999H19.1667V23.3333Z" fill="#DCEDC8"/>
<path d="M20 8.33325C20 8.33325 15 12.4999 15 19.1666C15 23.4999 17.75 26.2499 19.1667 27.4999L20 24.9999L20.8333 27.4999C22.25 26.2499 25 23.4999 25 19.1666C25 12.4999 20 8.33325 20 8.33325Z" fill="#4CAF50"/>
<path d="M20 8.33325C20 8.33325 15 12.4999 15 19.1666C15 23.4999 17.75 26.2499 19.1667 27.4999L20 24.9999V8.33325Z" fill="#81C784"/>
</svg>
