<svg width="40" height="40" viewBox="0 0 40 40" fill="none" xmlns="http://www.w3.org/2000/svg">
<path d="M20 28.125C9.66687 28.125 1.875 24.6319 1.875 20C1.875 15.3681 9.66687 11.875 20 11.875C30.3325 11.875 38.125 15.3681 38.125 20C38.125 24.6319 30.3325 28.125 20 28.125ZM20 14.375C11.0569 14.375 4.375 17.3444 4.375 20C4.375 22.655 11.0569 25.625 20 25.625C28.9431 25.625 35.625 22.655 35.625 20C35.625 17.3444 28.9431 14.375 20 14.375Z" fill="url(#paint0_linear)"/>
<path d="M26.8558 36.2638C25.1408 36.2638 23.1295 35.4131 20.9895 33.7506C18.1464 31.5425 15.2964 28.1019 12.9633 24.0613C7.79701 15.1131 6.92576 6.61876 10.937 4.30251C14.9476 1.98626 21.8695 6.98814 27.0364 15.9363C29.3689 19.9769 30.9239 24.1656 31.4145 27.7313C31.9576 31.6775 31.122 34.5063 29.062 35.695C28.4033 36.0763 27.662 36.2638 26.8558 36.2638ZM12.187 6.46814C9.88763 7.79564 10.657 15.0675 15.1283 22.8119C17.3033 26.5788 19.9295 29.7625 22.5226 31.7769C24.747 33.5038 26.7233 34.1613 27.812 33.5306C28.9008 32.9025 29.3214 30.8619 28.9376 28.0731C28.4901 24.8206 27.0464 20.9544 24.8708 17.1875C20.4001 9.44314 14.4895 5.14251 12.187 6.46814Z" fill="url(#paint1_linear)"/>
<path d="M13.1313 36.2607C12.335 36.2607 11.5963 36.0782 10.9369 35.6975C8.87751 34.5082 8.04188 31.68 8.58501 27.7338C9.07563 24.1675 10.63 19.9788 12.9631 15.9388C15.2956 11.8988 18.1463 8.45753 20.9894 6.25003C24.1344 3.80628 27.0013 3.11503 29.0619 4.30503C31.1219 5.49378 31.9575 8.32253 31.4144 12.2688C30.9238 15.835 29.3694 20.0238 27.0363 24.0638C22.7194 31.5394 17.1775 36.2607 13.1313 36.2607ZM15.1281 17.1882C12.9538 20.9544 11.5094 24.8207 11.0619 28.0738C10.6781 30.8632 11.0988 32.9038 12.1869 33.5313C14.4875 34.8619 20.4 30.5575 24.8706 22.8132C27.0456 19.0463 28.49 15.1807 28.9375 11.9275C29.3213 9.13878 28.9006 7.09815 27.8119 6.4694C26.7256 5.8419 24.7469 6.4969 22.5225 8.22378C19.9294 10.2375 17.3031 13.4213 15.1281 17.1882Z" fill="url(#paint2_linear)"/>
<path d="M20 23.125C21.7259 23.125 23.125 21.7259 23.125 20C23.125 18.2741 21.7259 16.875 20 16.875C18.2741 16.875 16.875 18.2741 16.875 20C16.875 21.7259 18.2741 23.125 20 23.125Z" fill="url(#paint3_linear)"/>
<defs>
<linearGradient id="paint0_linear" x1="20" y1="36.5294" x2="20" y2="4.53125" gradientUnits="userSpaceOnUse">
<stop stop-color="#155CDE"/>
<stop offset="0.278" stop-color="#1F7FE5"/>
<stop offset="0.569" stop-color="#279CEB"/>
<stop offset="0.82" stop-color="#2CAFEF"/>
<stop offset="1" stop-color="#2EB5F0"/>
</linearGradient>
<linearGradient id="paint1_linear" x1="19.9995" y1="36.3694" x2="19.9995" y2="3.25626" gradientUnits="userSpaceOnUse">
<stop stop-color="#155CDE"/>
<stop offset="0.278" stop-color="#1F7FE5"/>
<stop offset="0.569" stop-color="#279CEB"/>
<stop offset="0.82" stop-color="#2CAFEF"/>
<stop offset="1" stop-color="#2EB5F0"/>
</linearGradient>
<linearGradient id="paint2_linear" x1="20" y1="36.1306" x2="20" y2="3.70815" gradientUnits="userSpaceOnUse">
<stop stop-color="#155CDE"/>
<stop offset="0.278" stop-color="#1F7FE5"/>
<stop offset="0.569" stop-color="#279CEB"/>
<stop offset="0.82" stop-color="#2CAFEF"/>
<stop offset="1" stop-color="#2EB5F0"/>
</linearGradient>
<linearGradient id="paint3_linear" x1="20" y1="23.125" x2="20" y2="16.875" gradientUnits="userSpaceOnUse">
<stop stop-color="#155CDE"/>
<stop offset="0.278" stop-color="#1F7FE5"/>
<stop offset="0.569" stop-color="#279CEB"/>
<stop offset="0.82" stop-color="#2CAFEF"/>
<stop offset="1" stop-color="#2EB5F0"/>
</linearGradient>
</defs>
</svg>
