<svg width="40" height="40" viewBox="0 0 40 40" fill="none" xmlns="http://www.w3.org/2000/svg">
<path d="M5 8.33333C5 6.4925 6.4925 5 8.33333 5H31.6667C33.5075 5 35 6.4925 35 8.33333V31.6667C35 33.5075 33.5075 35 31.6667 35H8.33333C6.4925 35 5 33.5075 5 31.6667V8.33333Z" fill="#FF41C8"/>
<path d="M7.5 7.5V32.5H32.5V7.5H7.5ZM15.9108 18.0792L17.5058 14.01H20.2483L17.465 19.8858L20.3133 25.8592H17.5383L15.9108 21.7167L14.2917 25.8592H11.5167L14.365 19.8858L11.5733 14.01H14.3158L15.9108 18.0792ZM20.8908 21.1883C20.8908 19.745 21.135 18.6683 21.6233 17.9575C22.1117 17.2467 22.8217 16.8917 23.7558 16.8917C24.4333 16.8917 24.9983 17.185 25.4483 17.7708V13.36H27.7675V25.86H25.6758L25.57 24.965C25.0983 25.6708 24.49 26.0233 23.7467 26.0233C22.825 26.0233 22.1208 25.6708 21.635 24.965C21.1492 24.2592 20.9008 23.2233 20.89 21.8567V21.1883H20.8908ZM23.2025 21.7658C23.2025 22.6342 23.2942 23.2408 23.4792 23.585C23.6642 23.9292 23.9758 24.1017 24.415 24.1017C24.8708 24.1017 25.215 23.8983 25.4483 23.4917V19.4717C25.2208 19.0375 24.8783 18.8208 24.4233 18.8208C24 18.8208 23.6908 18.9917 23.4958 19.3333C23.3008 19.675 23.2025 20.2833 23.2025 21.1567V21.7658Z" fill="#16020B"/>
</svg>
