<svg width="40" height="40" viewBox="0 0 40 40" fill="none" xmlns="http://www.w3.org/2000/svg">
<path d="M5 35V5H35V35H5Z" fill="#FFD600"/>
<path d="M24.6151 27.4558C25.1918 28.3924 25.8184 29.2899 27.1459 29.2899C28.2609 29.2899 28.8459 28.7358 28.8459 27.9691C28.8459 27.0516 28.2409 26.7258 27.0143 26.1916L26.3418 25.9049C24.4009 25.0816 23.1101 24.0499 23.1101 21.8708C23.1101 19.8624 24.6476 18.3341 27.0501 18.3341C28.7609 18.3341 29.9901 18.9266 30.8768 20.4783L28.7818 21.8174C28.3209 20.9941 27.8226 20.6699 27.0501 20.6699C26.2618 20.6699 25.7626 21.1674 25.7626 21.8174C25.7626 22.6208 26.2626 22.9458 27.4168 23.4433L28.0893 23.7299C30.3768 24.7041 31.6668 25.6991 31.6668 27.9358C31.6668 30.3458 29.7634 31.6666 27.2084 31.6666C24.7093 31.6666 23.2901 30.4124 22.5001 28.8599L24.6151 27.4558ZM14.9601 27.5241C15.3818 28.2791 16.0226 28.8599 16.9443 28.8599C17.8259 28.8599 18.3334 28.5116 18.3334 27.1574V18.3333H21.1109V27.5841C21.1109 30.3899 19.4834 31.6666 17.1068 31.6666C14.9593 31.6666 13.4093 30.2116 12.7776 28.8599L14.9601 27.5241Z" fill="#000001"/>
</svg>
