<svg width="40" height="40" viewBox="0 0 40 40" fill="none" xmlns="http://www.w3.org/2000/svg">
<path d="M4.80005 8.13338C4.80005 6.29255 6.29255 4.80005 8.13338 4.80005H31.4667C33.3075 4.80005 34.8 6.29255 34.8 8.13338V31.4667C34.8 33.3075 33.3075 34.8 31.4667 34.8H8.13338C6.29255 34.8 4.80005 33.3075 4.80005 31.4667V8.13338Z" fill="#03A9F4"/>
<path d="M16.6801 15.9783H15.0117V19.6733H16.6559C17.1117 19.6733 17.4642 19.5241 17.7142 19.2258C17.9642 18.9274 18.0884 18.4933 18.0884 17.9233C18.0884 17.3316 17.9609 16.8616 17.7059 16.5116C17.4509 16.1616 17.1084 15.9841 16.6801 15.9783Z" fill="#020F16"/>
<path d="M7.5 7.5V32.5H32.5V7.5H7.5ZM19.4708 20.6575C18.7825 21.3308 17.8275 21.6667 16.6067 21.6667H15.0117V25.8333H12.6192V13.9842H16.6558C17.8275 13.9842 18.7625 14.3483 19.4592 15.075C20.1558 15.8017 20.505 16.7458 20.505 17.9067C20.505 19.0675 20.16 19.9842 19.4708 20.6575ZM27.235 25.28C26.6442 25.7575 25.8675 25.9958 24.9075 25.9958C24.2617 25.9958 23.6917 25.87 23.1983 25.6175C22.705 25.365 22.3175 25.0133 22.0383 24.5633C21.7592 24.1133 21.6192 23.6275 21.6192 23.1067H23.8083C23.82 23.5075 23.9125 23.8092 24.0892 24.01C24.2658 24.2108 24.5542 24.3108 24.9558 24.3108C25.5742 24.3108 25.8833 24.0317 25.8833 23.4725C25.8833 23.2775 25.79 23.0967 25.6025 22.9317C25.415 22.7667 25 22.5433 24.3542 22.2608C23.405 21.8758 22.7525 21.4775 22.3967 21.0642C22.0408 20.6508 21.8633 20.1392 21.8633 19.5258C21.8633 18.755 22.1417 18.1192 22.6975 17.6175C23.2533 17.1158 23.9908 16.865 24.9067 16.865C25.8717 16.865 26.645 17.115 27.2258 17.6133C27.8067 18.1117 28.0967 18.7825 28.0967 19.6233H25.7933C25.7933 18.9075 25.4958 18.5492 24.8983 18.5492C24.6542 18.5492 24.4542 18.625 24.2958 18.7767C24.1375 18.9283 24.06 19.1408 24.06 19.4117C24.06 19.6067 24.1467 19.7792 24.3208 19.9283C24.495 20.0775 24.9033 20.2908 25.55 20.5675C26.4892 20.915 27.1517 21.3017 27.54 21.7275C27.9283 22.1533 28.1217 22.7058 28.1217 23.3833C28.1217 24.1708 27.8258 24.8025 27.235 25.28Z" fill="#020F16"/>
</svg>
