<svg width="1440" height="650" viewBox="0 0 1440 650" fill="none" xmlns="http://www.w3.org/2000/svg">
<path d="M0 0H1426C1433.73 0 1440 6.26801 1440 14V298.156L486.164 637.126C462.19 645.646 436.934 650 411.491 650H0V0Z" fill="#2B57AD"/>
<path d="M137.95 426.297L0 537.353V649.521H96.3863C99.6887 649.521 102.885 648.353 105.41 646.225L240.206 532.592C244.091 529.317 245.896 524.194 244.923 519.206L232.171 453.878C231.148 448.638 227.234 444.436 222.079 443.044L150.378 423.686C146.057 422.519 141.437 423.49 137.95 426.297Z" fill="#00E0FF" fill-opacity="0.37"/>
<path d="M24.2763 318.207L4.14707 338.149C1.49309 340.778 0 344.359 0 348.094V472.161V526.807L126.521 423.295C130.511 420.031 132.384 414.838 131.396 409.778L118.671 344.586C117.648 339.346 113.734 335.144 108.579 333.752L37.7783 314.637C32.963 313.337 27.8197 314.697 24.2763 318.207Z" fill="#00E0FF" fill-opacity="0.37"/>
<path d="M247.945 538.487L110 650H211.5H338.536C341.747 650 344.861 648.896 347.355 646.872L349.968 644.753C353.988 641.492 355.88 636.279 354.889 631.199L342.171 566.046C341.148 560.806 337.234 556.603 332.079 555.212L260.396 535.859C256.064 534.689 251.435 535.667 247.945 538.487Z" fill="#00E0FF" fill-opacity="0.37"/>
</svg>
