<svg width="39" height="39" viewBox="0 0 39 39" fill="none" xmlns="http://www.w3.org/2000/svg">
<path d="M19.4976 0.405914C8.73113 0.405914 0 9.17116 0 19.9839C0 28.6321 5.58675 35.969 13.338 38.5601C14.313 38.7405 14.6689 38.136 14.6689 37.6168C14.6689 37.1512 14.6518 35.9203 14.6421 34.2871C9.21863 35.4693 8.073 31.662 8.073 31.662C7.18819 29.4 5.9085 28.7979 5.9085 28.7979C4.13644 27.584 6.04012 27.6084 6.04012 27.6084C7.99744 27.7473 9.02606 29.6266 9.02606 29.6266C10.7664 32.6175 13.5915 31.7546 14.703 31.2525C14.8785 29.9874 15.3831 29.1245 15.9412 28.6346C11.6122 28.1398 7.059 26.4603 7.059 18.9602C7.059 16.8225 7.8195 15.0748 9.0675 13.7049C8.86519 13.2101 8.19731 11.2187 9.25763 8.52522C9.25763 8.52522 10.8956 7.99872 14.6201 10.5313C16.1753 10.0974 17.8425 9.88047 19.5024 9.87316C21.1575 9.88291 22.8272 10.0974 24.3847 10.5337C28.1068 8.00116 29.7424 8.52766 29.7424 8.52766C30.8051 11.2235 30.1372 13.2125 29.9374 13.7073C31.1878 15.0772 31.941 16.8249 31.941 18.9626C31.941 26.4823 27.3829 28.1373 23.0392 28.6224C23.7388 29.2269 24.3628 30.4213 24.3628 32.247C24.3628 34.8648 24.3384 36.9757 24.3384 37.6168C24.3384 38.1408 24.6894 38.7502 25.6791 38.5576C33.4181 35.9641 39 28.6297 39 19.9839C39 9.17116 30.2689 0.405914 19.4976 0.405914Z" fill="#225D9A"/>
</svg>
