<svg width="39" height="39" viewBox="0 0 39 39" fill="none" xmlns="http://www.w3.org/2000/svg">
<g clip-path="url(#clip0)">
<path d="M19.5065 9.48676C13.9766 9.48676 9.49976 13.9685 9.49976 19.4935C9.49976 25.0234 13.9815 29.5002 19.5065 29.5002C25.0364 29.5002 29.5132 25.0185 29.5132 19.4935C29.5132 13.9636 25.0315 9.48676 19.5065 9.48676ZM19.5065 25.9886C15.9169 25.9886 13.0114 23.0815 13.0114 19.4935C13.0114 15.9055 15.9185 12.9984 19.5065 12.9984C23.0945 12.9984 26.0016 15.9055 26.0016 19.4935C26.0032 23.0815 23.0961 25.9886 19.5065 25.9886Z" fill="#225D9A"/>
<path d="M27.5361 0.13558C23.9481 -0.031795 15.0609 -0.02367 11.4697 0.13558C8.31391 0.283456 5.53027 1.04558 3.28613 3.28971C-0.464391 7.04022 0.0149866 12.094 0.0149866 19.5056C0.0149866 27.0912 -0.407516 32.0279 3.28613 35.7216C7.05128 39.4851 12.1782 38.9927 19.5021 38.9927C27.0161 38.9927 29.6097 38.9976 32.2665 37.9689C35.8789 36.5666 38.6057 33.3377 38.8722 27.538C39.0412 23.9484 39.0315 15.0629 38.8722 11.4716C38.5505 4.62547 34.8763 0.473581 27.5361 0.13558ZM33.2155 33.2402C30.7569 35.6988 27.346 35.4794 19.455 35.4794C11.3299 35.4794 8.07178 35.5997 5.69439 33.2158C2.95625 30.4907 3.45188 26.1145 3.45188 19.4796C3.45188 10.5015 2.5305 4.03559 11.5412 3.57409C13.6114 3.50096 14.2208 3.47659 19.4322 3.47659L19.5053 3.52534C28.165 3.52534 34.9592 2.61859 35.3671 11.6276C35.4597 13.6832 35.4808 14.3007 35.4808 19.504C35.4792 27.5348 35.6319 30.8124 33.2155 33.2402Z" fill="#225D9A"/>
<path d="M29.9097 11.4303C31.2011 11.4303 32.2481 10.3833 32.2481 9.09188C32.2481 7.80043 31.2011 6.75351 29.9097 6.75351C28.6182 6.75351 27.5713 7.80043 27.5713 9.09188C27.5713 10.3833 28.6182 11.4303 29.9097 11.4303Z" fill="#225D9A"/>
</g>
<defs>
<clipPath id="clip0">
<rect width="39" height="39" fill="white"/>
</clipPath>
</defs>
</svg>
