<svg width="39" height="39" viewBox="0 0 39 39" fill="none" xmlns="http://www.w3.org/2000/svg">
<g clip-path="url(#clip0)">
<path d="M12.1881 32.2207H6.85606V15.0059H12.1881V32.2207ZM12.7201 9.52119C12.7201 7.7975 11.3216 6.39844 9.59885 6.39844C7.86951 6.39844 6.47461 7.7975 6.47461 9.52119C6.47461 11.2455 7.86951 12.6445 9.59885 12.6445C11.3216 12.6445 12.7201 11.2455 12.7201 9.52119ZM32.1445 22.7498C32.1445 18.1286 31.1683 14.7012 25.7699 14.7012C23.1759 14.7012 21.4346 15.9985 20.7238 17.3475H20.7188V15.0059H15.5391V32.2207H20.7188V23.6734C20.7188 21.4349 21.2886 19.2664 24.0632 19.2664C26.8 19.2664 26.8887 21.8262 26.8887 23.8156V32.2207H32.1445V22.7498ZM39 34.4297V4.57031C39 2.05009 36.9499 0 34.4297 0H4.57031C2.05009 0 0 2.05009 0 4.57031V34.4297C0 36.9499 2.05009 39 4.57031 39H34.4297C36.9499 39 39 36.9499 39 34.4297ZM34.4297 3.04688C35.2697 3.04688 35.9531 3.73034 35.9531 4.57031V34.4297C35.9531 35.2697 35.2697 35.9531 34.4297 35.9531H4.57031C3.73034 35.9531 3.04688 35.2697 3.04688 34.4297V4.57031C3.04688 3.73034 3.73034 3.04688 4.57031 3.04688H34.4297Z" fill="#225D9A"/>
</g>
<defs>
<clipPath id="clip0">
<rect width="39" height="39" fill="white"/>
</clipPath>
</defs>
</svg>
